<svg width="257" height="32" viewBox="0 0 257 32" fill="none" xmlns="http://www.w3.org/2000/svg">
<path d="M11.92 5.04H21.24V31H11.92V5.04ZM0.8 0.999998H32.36V9.28H0.8V0.999998ZM51.7778 31L50.6978 22.84L51.8178 19.56L50.6978 16.32L51.7778 8.08H61.2978L59.7778 19.52L61.2978 31H51.7778ZM53.8178 19.56C53.4978 21.9867 52.7911 24.12 51.6978 25.96C50.6311 27.7733 49.2445 29.1867 47.5378 30.2C45.8578 31.1867 43.9245 31.68 41.7378 31.68C39.5245 31.68 37.5645 31.1733 35.8578 30.16C34.1511 29.1467 32.8178 27.7333 31.8578 25.92C30.9245 24.08 30.4578 21.96 30.4578 19.56C30.4578 17.1067 30.9245 14.9733 31.8578 13.16C32.8178 11.32 34.1511 9.90666 35.8578 8.92C37.5645 7.90667 39.5245 7.4 41.7378 7.4C43.9245 7.4 45.8578 7.89333 47.5378 8.88C49.2445 9.86667 50.6445 11.28 51.7378 13.12C52.8311 14.9333 53.5245 17.08 53.8178 19.56ZM39.6978 19.56C39.6978 20.5733 39.8978 21.4667 40.2978 22.24C40.7245 23.0133 41.3111 23.6267 42.0578 24.08C42.8045 24.5333 43.6578 24.76 44.6178 24.76C45.6045 24.76 46.5511 24.5333 47.4578 24.08C48.3645 23.6267 49.1645 23.0133 49.8578 22.24C50.5511 21.4667 51.0578 20.5733 51.3778 19.56C51.0578 18.5467 50.5511 17.6533 49.8578 16.88C49.1645 16.08 48.3645 15.4533 47.4578 15C46.5511 14.5467 45.6045 14.32 44.6178 14.32C43.6578 14.32 42.8045 14.5467 42.0578 15C41.3111 15.4533 40.7245 16.08 40.2978 16.88C39.8978 17.6533 39.6978 18.5467 39.6978 19.56ZM63.0525 14.8V10.84L67.6125 8.76L71.6125 1.88H76.8125V8.08H86.0925V14.8H76.8125V20.52C76.8125 22.0667 77.1058 23.16 77.6925 23.8C78.3058 24.44 79.4925 24.76 81.2525 24.76C82.3458 24.76 83.3192 24.68 84.1725 24.52C85.0258 24.3333 85.7992 24.1067 86.4925 23.84V30.6C85.6392 30.8667 84.5592 31.1067 83.2525 31.32C81.9458 31.56 80.5725 31.68 79.1325 31.68C76.5192 31.68 74.3592 31.28 72.6525 30.48C70.9725 29.68 69.7058 28.5333 68.8525 27.04C68.0258 25.5467 67.6125 23.7867 67.6125 21.76V14.8H63.0525ZM109.59 31L108.51 22.84L109.63 19.56L108.51 16.32L109.59 8.08H119.11L117.59 19.52L119.11 31H109.59ZM111.63 19.56C111.31 21.9867 110.604 24.12 109.51 25.96C108.444 27.7733 107.057 29.1867 105.35 30.2C103.67 31.1867 101.737 31.68 99.5503 31.68C97.337 31.68 95.377 31.1733 93.6703 30.16C91.9636 29.1467 90.6303 27.7333 89.6703 25.92C88.737 24.08 88.2703 21.96 88.2703 19.56C88.2703 17.1067 88.737 14.9733 89.6703 13.16C90.6303 11.32 91.9636 9.90666 93.6703 8.92C95.377 7.90667 97.337 7.4 99.5503 7.4C101.737 7.4 103.67 7.89333 105.35 8.88C107.057 9.86667 108.457 11.28 109.55 13.12C110.644 14.9333 111.337 17.08 111.63 19.56ZM97.5103 19.56C97.5103 20.5733 97.7103 21.4667 98.1103 22.24C98.537 23.0133 99.1236 23.6267 99.8703 24.08C100.617 24.5333 101.47 24.76 102.43 24.76C103.417 24.76 104.364 24.5333 105.27 24.08C106.177 23.6267 106.977 23.0133 107.67 22.24C108.364 21.4667 108.87 20.5733 109.19 19.56C108.87 18.5467 108.364 17.6533 107.67 16.88C106.977 16.08 106.177 15.4533 105.27 15C104.364 14.5467 103.417 14.32 102.43 14.32C101.47 14.32 100.617 14.5467 99.8703 15C99.1236 15.4533 98.537 16.08 98.1103 16.88C97.7103 17.6533 97.5103 18.5467 97.5103 19.56ZM121.625 8.08H130.985L132.345 16.2V31H123.185V15.92L121.625 8.08ZM142.785 7.64V15.44C141.932 15.28 141.145 15.1733 140.425 15.12C139.732 15.04 139.092 15 138.505 15C137.412 15 136.398 15.2133 135.465 15.64C134.532 16.04 133.772 16.7467 133.185 17.76C132.625 18.7467 132.345 20.12 132.345 21.88L130.665 19.8C130.905 18.1467 131.225 16.5867 131.625 15.12C132.052 13.6267 132.625 12.3067 133.345 11.16C134.065 9.98667 134.958 9.06667 136.025 8.4C137.118 7.73333 138.452 7.4 140.025 7.4C140.452 7.4 140.892 7.42667 141.345 7.48C141.798 7.50667 142.278 7.56 142.785 7.64ZM144.448 21.16H153.888C153.994 21.8533 154.328 22.4667 154.888 23C155.474 23.5067 156.261 23.9067 157.248 24.2C158.234 24.4667 159.394 24.6 160.728 24.6C162.568 24.6 163.994 24.3867 165.008 23.96C166.048 23.5333 166.568 22.88 166.568 22C166.568 21.3867 166.274 20.8933 165.688 20.52C165.101 20.12 163.941 19.8533 162.208 19.72L156.928 19.28C152.608 18.96 149.474 18.0267 147.528 16.48C145.608 14.9067 144.648 12.8 144.648 10.16C144.648 8 145.274 6.2 146.528 4.76C147.781 3.29333 149.528 2.18667 151.768 1.44C154.008 0.693333 156.648 0.319999 159.688 0.319999C162.621 0.319999 165.221 0.733332 167.488 1.56C169.781 2.38666 171.594 3.56 172.928 5.08C174.288 6.57333 175.034 8.32 175.168 10.32H165.728C165.621 9.73333 165.314 9.22667 164.808 8.8C164.328 8.34667 163.634 8 162.728 7.76C161.821 7.52 160.741 7.4 159.488 7.4C157.834 7.4 156.514 7.6 155.528 8C154.568 8.4 154.088 9 154.088 9.8C154.088 10.3867 154.368 10.8667 154.928 11.24C155.514 11.6133 156.581 11.8667 158.128 12L163.928 12.48C166.808 12.6933 169.128 13.1467 170.888 13.84C172.674 14.5067 173.968 15.4267 174.768 16.6C175.568 17.7467 175.968 19.2 175.968 20.96C175.968 23.0933 175.328 24.9733 174.048 26.6C172.768 28.2 170.968 29.4533 168.648 30.36C166.354 31.24 163.661 31.68 160.568 31.68C157.394 31.68 154.608 31.24 152.208 30.36C149.808 29.48 147.928 28.2533 146.568 26.68C145.208 25.08 144.501 23.24 144.448 21.16ZM177.076 14.8V10.84L181.636 8.76L185.636 1.88H190.836V8.08H200.116V14.8H190.836V20.52C190.836 22.0667 191.129 23.16 191.716 23.8C192.329 24.44 193.516 24.76 195.276 24.76C196.369 24.76 197.343 24.68 198.196 24.52C199.049 24.3333 199.823 24.1067 200.516 23.84V30.6C199.663 30.8667 198.583 31.1067 197.276 31.32C195.969 31.56 194.596 31.68 193.156 31.68C190.543 31.68 188.383 31.28 186.676 30.48C184.996 29.68 183.729 28.5333 182.876 27.04C182.049 25.5467 181.636 23.7867 181.636 21.76V14.8H177.076ZM223.614 31L222.534 22.84L223.654 19.56L222.534 16.32L223.614 8.08H233.134L231.614 19.52L233.134 31H223.614ZM225.654 19.56C225.334 21.9867 224.627 24.12 223.534 25.96C222.467 27.7733 221.08 29.1867 219.374 30.2C217.694 31.1867 215.76 31.68 213.574 31.68C211.36 31.68 209.4 31.1733 207.694 30.16C205.987 29.1467 204.654 27.7333 203.694 25.92C202.76 24.08 202.294 21.96 202.294 19.56C202.294 17.1067 202.76 14.9733 203.694 13.16C204.654 11.32 205.987 9.90666 207.694 8.92C209.4 7.90667 211.36 7.4 213.574 7.4C215.76 7.4 217.694 7.89333 219.374 8.88C221.08 9.86667 222.48 11.28 223.574 13.12C224.667 14.9333 225.36 17.08 225.654 19.56ZM211.534 19.56C211.534 20.5733 211.734 21.4667 212.134 22.24C212.56 23.0133 213.147 23.6267 213.894 24.08C214.64 24.5333 215.494 24.76 216.454 24.76C217.44 24.76 218.387 24.5333 219.294 24.08C220.2 23.6267 221 23.0133 221.694 22.24C222.387 21.4667 222.894 20.5733 223.214 19.56C222.894 18.5467 222.387 17.6533 221.694 16.88C221 16.08 220.2 15.4533 219.294 15C218.387 14.5467 217.44 14.32 216.454 14.32C215.494 14.32 214.64 14.5467 213.894 15C213.147 15.4533 212.56 16.08 212.134 16.88C211.734 17.6533 211.534 18.5467 211.534 19.56ZM235.648 8.08H245.008L246.368 16.2V31H237.208V15.92L235.648 8.08ZM256.808 7.64V15.44C255.955 15.28 255.168 15.1733 254.448 15.12C253.755 15.04 253.115 15 252.528 15C251.435 15 250.422 15.2133 249.488 15.64C248.555 16.04 247.795 16.7467 247.208 17.76C246.648 18.7467 246.368 20.12 246.368 21.88L244.688 19.8C244.928 18.1467 245.248 16.5867 245.648 15.12C246.075 13.6267 246.648 12.3067 247.368 11.16C248.088 9.98667 248.982 9.06667 250.048 8.4C251.142 7.73333 252.475 7.4 254.048 7.4C254.475 7.4 254.915 7.42667 255.368 7.48C255.822 7.50667 256.302 7.56 256.808 7.64Z" fill="#333333"/>
</svg>
